<?xml version="1.0" standalone="no"?>
<!DOCTYPE svg PUBLIC "-//W3C//DTD SVG 20010904//EN"
 "http://www.w3.org/TR/2001/REC-SVG-20010904/DTD/svg10.dtd">
<svg version="1.0" xmlns="http://www.w3.org/2000/svg"
 width="241.000000pt" height="272.000000pt" viewBox="0 0 241.000000 272.000000"
 preserveAspectRatio="xMidYMid meet">

<g transform="translate(0.000000,272.000000) scale(0.100000,-0.100000)"
fill="#000000" stroke="none">
<path d="M630 1995 l0 -585 580 0 580 0 0 585 0 585 -580 0 -580 0 0 -585z
m1140 5 l0 -560 -560 0 -560 0 0 560 0 560 560 0 560 0 0 -560z"/>
<path d="M1024 2474 c-58 -21 -118 -75 -148 -136 -23 -47 -26 -63 -26 -168 0
-105 3 -121 26 -168 14 -29 42 -65 61 -81 l36 -30 -35 -14 c-18 -8 -46 -29
-61 -46 -23 -28 -27 -42 -27 -97 0 -102 47 -173 140 -211 37 -15 73 -18 210
-18 186 0 207 5 280 72 71 63 90 117 90 254 0 104 -2 120 -26 167 -14 29 -46
69 -70 89 l-43 37 31 15 c60 29 89 108 68 189 -16 65 -53 110 -114 138 -47 22
-63 24 -201 23 -104 0 -162 -5 -191 -15z m112 -59 c-51 -52 -81 -57 -98 -19
-18 39 16 64 88 64 l53 0 -43 -45z m94 17 c-19 -10 -50 -40 -67 -66 -27 -40
-33 -58 -33 -102 0 -99 -38 -153 -113 -161 -144 -17 -188 158 -69 280 41 42
52 46 52 17 0 -31 36 -60 75 -60 27 0 42 8 67 36 37 41 85 74 108 74 8 0 -1
-8 -20 -18z m85 -25 c-52 -29 -88 -96 -82 -149 l5 -38 -39 0 c-37 0 -39 2 -39
30 0 36 23 96 48 124 22 24 90 56 122 56 22 0 20 -3 -15 -23z m120 -27 c4 -6
-8 -10 -30 -10 -67 0 -121 -78 -95 -139 33 -81 158 -50 148 36 -2 21 -13 33
-43 48 l-40 20 32 3 c41 4 69 -11 88 -48 14 -26 14 -34 1 -65 -17 -41 -68 -75
-112 -75 -44 0 -97 39 -111 82 -19 58 9 127 62 149 28 11 93 11 100 -1z m-44
-90 c41 0 46 -50 8 -71 -40 -21 -81 29 -59 72 9 15 15 18 23 10 6 -6 19 -11
28 -11z m-125 -114 c23 -23 17 -26 -45 -26 -58 0 -79 9 -66 30 9 15 94 12 111
-4z m-52 -56 l49 0 -21 -23 c-12 -13 -26 -47 -32 -75 -12 -64 -22 -84 -56
-111 -64 -50 -166 -6 -166 73 0 52 33 86 83 86 21 0 41 -4 44 -10 3 -5 -3 -10
-14 -10 -27 0 -49 -34 -43 -65 9 -51 85 -60 111 -14 18 33 8 74 -28 108 -32
30 -30 56 3 47 11 -3 43 -6 70 -6z m-266 -47 c20 -5 22 -9 16 -32 -4 -14 -8
-41 -8 -58 0 -31 -1 -32 -17 -17 -26 23 -59 95 -59 128 l0 27 22 -21 c13 -11
33 -23 46 -27z m461 17 c73 -37 131 -125 131 -199 0 -23 -1 -23 -18 -8 -61 55
-158 58 -217 6 -20 -18 -36 -26 -40 -19 -3 5 -24 10 -45 10 l-39 0 24 36 c13
20 27 52 31 73 10 60 15 73 42 98 31 29 79 30 131 3z m-265 -98 c-14 -22 -48
-22 -52 1 -2 11 5 20 20 26 30 11 47 -3 32 -27z m303 -103 c111 -42 121 -166
22 -273 -46 -49 -48 -50 -49 -24 0 32 -41 68 -77 68 -16 0 -43 -19 -79 -56
-55 -55 -91 -69 -42 -16 40 42 49 68 55 149 7 84 30 124 88 149 37 16 46 17
82 3z m-402 -43 c66 -28 96 -123 59 -186 -27 -45 -107 -74 -142 -51 -9 5 -1
10 26 15 52 8 92 53 92 104 0 90 -115 116 -149 33 -16 -38 -1 -69 41 -83 38
-14 22 -33 -21 -23 -94 20 -92 149 3 191 40 17 49 17 91 0z m208 -10 c9 -22
-2 -26 -63 -26 -51 0 -80 11 -80 32 0 4 31 8 69 8 50 0 70 -4 74 -14z m-221
-73 c21 -18 23 -36 8 -64 -10 -17 -13 -18 -26 -4 -9 8 -24 15 -34 15 -27 0
-32 28 -10 50 24 24 38 25 62 3z m211 -36 c-4 -120 -115 -207 -225 -176 l-43
12 44 8 c87 16 131 69 131 157 l0 53 48 -3 47 -3 -2 -48z m131 -113 c19 -19
21 -48 3 -62 -14 -12 -127 -29 -127 -19 0 11 88 97 98 97 6 0 18 -7 26 -16z"/>
<path d="M953 2336 c-12 -14 -26 -48 -33 -75 -14 -60 3 -101 49 -121 64 -26
115 18 125 108 5 50 4 52 -20 52 -31 0 -63 16 -84 43 -16 20 -17 19 -37 -7z
m42 -45 c3 -5 19 -12 36 -16 27 -6 30 -10 27 -42 -2 -25 -11 -42 -30 -56 -25
-19 -28 -19 -52 -3 -20 12 -26 25 -26 52 0 54 27 93 45 65z"/>
<path d="M1303 2065 c-15 -10 -24 -31 -29 -63 -3 -26 -12 -62 -20 -80 -15 -36
-12 -36 45 7 30 23 44 26 113 26 43 0 78 3 78 7 0 16 -66 81 -101 99 -46 23
-58 24 -86 4z m91 -44 l28 -19 -51 -11 c-29 -6 -54 -11 -56 -11 -8 0 -6 46 2
53 12 13 48 7 77 -12z"/>
<path d="M1358 1845 c-29 -16 -48 -65 -48 -124 0 -25 4 -32 14 -28 22 9 81
-11 101 -33 25 -28 30 -26 54 23 23 48 27 113 8 138 -30 39 -83 49 -129 24z
m92 -35 c22 -22 26 -57 9 -94 -11 -22 -14 -23 -33 -11 -11 7 -36 16 -54 20
-31 6 -33 9 -27 38 12 61 67 85 105 47z"/>
<path d="M366 1108 c-49 -29 -75 -71 -83 -137 -9 -79 29 -148 121 -215 39 -30
78 -61 85 -70 21 -25 3 -68 -32 -80 -43 -15 -62 2 -63 59 -1 26 -6 50 -10 55
-44 40 -104 -1 -104 -70 0 -162 189 -218 294 -87 26 32 30 47 31 97 0 68 -16
96 -86 148 -101 75 -118 92 -125 127 -9 49 16 85 59 85 55 0 62 -11 60 -87 -3
-75 7 -93 48 -93 62 0 90 118 47 199 -33 64 -66 84 -141 88 -50 3 -69 0 -101
-19z"/>
<path d="M824 1088 c-89 -61 -141 -197 -131 -346 9 -146 68 -231 178 -254 49
-10 58 -9 97 11 48 25 91 84 119 165 14 39 18 82 18 181 0 125 -1 132 -30 183
-53 97 -159 122 -251 60z m161 -123 c53 -109 -9 -375 -88 -375 -29 0 -74 52
-87 101 -25 91 6 236 63 297 16 17 30 22 57 20 30 -3 38 -9 55 -43z"/>
<path d="M1900 1107 c-75 -38 -132 -217 -147 -465 -5 -90 -4 -104 12 -122 36
-40 95 -11 95 47 0 26 19 28 118 17 39 -5 52 -11 52 -23 0 -47 58 -73 89 -42
19 19 21 33 21 134 0 225 -32 360 -100 430 -31 30 -45 37 -76 37 -22 0 -50 -6
-64 -13z m86 -129 c23 -44 43 -168 44 -265 l0 -81 -82 5 c-46 3 -85 7 -86 9
-8 6 30 227 48 279 32 93 49 105 76 53z"/>
<path d="M1257 1089 c-41 -31 -50 -84 -48 -289 1 -268 8 -300 61 -300 50 0 54
15 47 200 l-7 169 68 3 c61 3 67 5 70 26 3 21 0 22 -63 22 l-66 0 3 43 3 42
62 -3 c79 -5 103 8 103 53 0 46 -20 55 -123 55 -70 0 -89 -4 -110 -21z"/>
<path d="M1574 1096 c-18 -14 -19 -31 -22 -286 -3 -245 -1 -274 14 -291 22
-24 56 -24 77 -1 15 16 17 51 17 290 0 233 -2 273 -16 286 -19 20 -44 20 -70
2z"/>
<path d="M414 386 c-59 -26 -68 -106 -17 -146 24 -19 82 -27 96 -14 11 12 -6
34 -27 34 -28 0 -42 10 -50 37 -9 28 27 67 54 60 15 -4 38 20 28 28 -14 11
-59 11 -84 1z"/>
<path d="M886 328 c-9 -35 -19 -73 -22 -85 -5 -20 -2 -23 19 -23 16 0 26 7 30
20 7 27 47 27 54 0 4 -14 14 -20 35 -20 23 0 28 4 24 18 -3 9 -15 47 -26 85
l-21 67 -38 0 -39 0 -16 -62z m73 -30 c1 -12 -6 -18 -20 -18 -21 0 -21 -1 -1
65 5 18 6 18 13 -5 4 -14 7 -33 8 -42z"/>
<path d="M1420 305 c0 -84 0 -85 25 -85 22 0 25 4 25 35 0 44 10 44 30 2 11
-23 23 -33 43 -35 33 -4 37 18 7 48 l-20 20 20 20 c45 45 13 80 -71 80 l-59 0
0 -85z m95 35 c0 -8 -10 -16 -22 -18 -18 -3 -23 2 -23 18 0 16 5 21 23 18 12
-2 22 -10 22 -18z"/>
<path d="M1940 305 l0 -85 60 0 c47 0 60 3 60 15 0 10 -10 15 -30 15 -25 0
-30 4 -30 25 0 20 5 25 25 25 14 0 25 5 25 10 0 6 -11 10 -25 10 -18 0 -25 5
-25 20 0 16 7 20 30 20 20 0 30 5 30 15 0 12 -13 15 -60 15 l-60 0 0 -85z"/>
</g>
</svg>
